{"title":"Kiss.Kiss.Bang.Bang.2005.1080p.BluRay.H264.AAC-RARBG","uid":12118266,"size":2103440694,"categoryP":"video","categoryS":"hd___movies","magnet":"?xt=urn:btih:611c41636b2bad985fbd756c0c806049f40d1ab9&amp;dn=Kiss.Kiss.Bang.Bang.2005.1080p.BluRay.H264.AAC-RARBG&amp;tr=udp%3A%2F%2Ftracker.openbittorrent.com%3A80&amp;tr=udp%3A%2F%2Fopen.demonii.com%3A1337&amp;tr=udp%3A%2F%2Ftracker.coppersurfer.tk%3A6969&amp;tr=udp%3A%2F%2Fexodus.desync.com%3A6969","seeders":5,"leechers":2,"uploader":null,"files":5,"time":1436776123,"description":"Video\nID                                       : 1\nFormat                                   : AVC\nFormat/Info                              : Advanced Video Codec\nFormat profile                           : &lt;a class=&quot;__cf_email__&quot; href=&quot;/cdn-cgi/l/email-protection&quot; data-cfemail=&quot;7c34151b143c3048524d&quot;&gt;[email&amp;#160;protected]&lt;/a&gt;&lt;script data-cfhash='f9e31' type=&quot;text/javascript&quot;&gt;\n/* &lt;![CDATA[ */!function(){try{var t=&quot;currentScript&quot;in document?document.currentScript:function(){for(var t=document.getElementsByTagName(&quot;script&quot;),e=t.length;e--;)if(t[e].getAttribute(&quot;data-cfhash&quot;))return t[e]}();if(t&amp;&amp;t.previousSibling){var e,r,n,i,c=t.previousSibling,a=c.getAttribute(&quot;data-cfemail&quot;);if(a){for(e=&quot;&quot;,r=parseInt(a.substr(0,2),16),n=2;a.length-n;n+=2)i=parseInt(a.substr(n,2),16)^r,e+=String.fromCharCode(i);e=document.createTextNode(e),c.parentNode.replaceChild(e,c)}t.parentNode.removeChild(t);}}catch(u){}}()/* ]]&gt; */&lt;/script&gt;\nFormat settings, CABAC                   : Yes\nFormat settings, ReFrames                : 4 frames\nCodec ID                                 : avc1\nCodec ID/Info                            : Advanced Video Coding\nDuration                                 : 1h 42mn\nBit rate                                 : 2 500 Kbps\nWidth                                    : 1 916 pixels\nHeight                                   : 794 pixels\nDisplay aspect ratio                     : 2.40:1\nFrame rate mode                          : Constant\nFrame rate                               : 23.976 fps\nColor space                              : YUV\nChroma subsampling                       : 4:2:0\nBit depth                                : 8 bits\nScan type                                : Progressive\nBits/(Pixel*Frame)                       : 0.069\nStream size                              : 1.79 GiB (92%)\nWriting library                          : x264 core 144 r2525M 40bb568\nEncoding settings                        : cabac=1 / ref=4 / deblock=1:-1:-1 / analyse=0x3:0x113 / me=umh / subme=9 / psy=1 / psy_rd=1.00:0.15 / mixed_ref=1 / me_range=24 / chroma_me=1 / trellis=2 / 8x8dct=1 / cqm=0 / deadzone=21,11 / fast_pskip=1 / chroma_qp_offset=-3 / threads=32 / lookahead_threads=4 / sliced_threads=0 / nr=0 / decimate=1 / interlaced=0 / bluray_compat=0 / constrained_intra=0 / bframes=3 / b_pyramid=2 / b_adapt=1 / b_bias=0 / direct=1 / weightb=1 / open_gop=0 / weightp=2 / keyint=250 / keyint_min=25 / scenecut=40 / intra_refresh=0 / rc_lookahead=50 / rc=2pass / mbtree=1 / bitrate=2500 / ratetol=1.0 / qcomp=0.60 / qpmin=0 / qpmax=69 / qpstep=4 / cplxblur=20.0 / qblur=0.5 / vbv_maxrate=31250 / vbv_bufsize=31250 / nal_hrd=none / filler=0 / ip_ratio=1.40 / aq=3:1.00\nEncoded date                             : UTC 1904-01-01 00:00:00\nTagged date                              : UTC 1904-01-01 00:00:00\n\nAudio\nID                                       : 2\nFormat                                   : AAC\nFormat/Info                              : Advanced Audio Codec\nFormat profile                           : LC\nCodec ID                                 : 40\nDuration                                 : 1h 42mn\nDuration_LastFrame                       : 43ms\nBit rate mode                            : Constant\nBit rate                                 : 224 Kbps\nChannel(s)                               : 2 channels\nChannel(s)_Original                      : 6 channels\nChannel positions                        : Front: L C R, Side: L R, LFE\nSampling rate                            : 48.0 KHz\nCompression mode                         : Lossy\nStream size                              : 165 MiB (8%)\nLanguage                                 : English\nEncoded date                             : UTC 1904-01-01 00:00:00\nTagged date                              : UTC 1904-01-01 00:00:00\n\nMenu #1\nID                                       : 3\nCodec ID                                 : text\nDuration                                 : 1h 42mn\nLanguage                                 : English\nEncoded date                             : UTC 1904-01-01 00:00:00\nTagged date                              : UTC 1904-01-01 00:00:00\nBit rate mode                            : CBR\n00:00:00.000                             : Chapter 01\n00:03:24.664                             : Chapter 02\n00:08:24.797                             : Chapter 03\n00:12:46.684                             : Chapter 04\n00:17:19.331                             : Chapter 05\n00:23:39.378                             : Chapter 06\n00:25:27.944                             : Chapter 07\n00:30:57.816                             : Chapter 08\n00:33:35.098                             : Chapter 09\n00:36:29.147                             : Chapter 10\n00:38:38.943                             : Chapter 11\n00:44:22.703                             : Chapter 12\n00:46:42.384                             : Chapter 13\n00:49:06.820                             : Chapter 14\n00:52:15.634                             : Chapter 15\n00:56:11.119                             : Chapter 16\n00:59:23.937                             : Chapter 17\n01:02:11.980                             : Chapter 18\n01:05:45.610                             : Chapter 19\n01:07:15.574                             : Chapter 20\n01:11:07.932                             : Chapter 21\n01:15:56.595                             : Chapter 22\n01:19:11.873                             : Chapter 23\n01:22:51.384                             : Chapter 24\n01:26:11.084                             : Chapter 25\n01:28:50.034                             : Chapter 26\n01:32:10.735                             : Chapter 27\n01:35:24.011                             : Chapter 28\n01:38:30.364                             : Chapter 29\n\nMenu #2\n00:00:00.043                             : Chapter 01\n00:03:24.664                             : Chapter 02\n00:08:24.797                             : Chapter 03\n00:12:46.684                             : Chapter 04\n00:17:19.331                             : Chapter 05\n00:23:39.378                             : Chapter 06\n00:25:27.944                             : Chapter 07\n00:30:57.816                             : Chapter 08\n00:33:35.098                             : Chapter 09\n00:36:29.147                             : Chapter 10\n00:38:38.943                             : Chapter 11\n00:44:22.703                             : Chapter 12\n00:46:42.384                             : Chapter 13\n00:49:06.820                             : Chapter 14\n00:52:15.634                             : Chapter 15\n00:56:11.119                             : Chapter 16\n00:59:23.937                             : Chapter 17\n01:02:11.980                             : Chapter 18\n01:05:45.610                             : Chapter 19\n01:07:15.574                             : Chapter 20\n01:11:07.932                             : Chapter 21\n01:15:56.595                             : Chapter 22\n01:19:11.873                             : Chapter 23\n01:22:51.384                             : Chapter 24\n01:26:11.084                             : Chapter 25\n01:28:50.034                             : Chapter 26\n01:32:10.735                             : Chapter 27\n01:35:24.011                             : Chapter 28\n01:38:30.364                             : Chapter 29","torrent":{"xt":"urn:btih:611c41636b2bad985fbd756c0c806049f40d1ab9","amp;dn":"Kiss.Kiss.Bang.Bang.2005.1080p.BluRay.H264.AAC-RARBG","amp;tr":["udp%3A%2F%2Ftracker.openbittorrent.com%3A80","udp%3A%2F%2Fopen.demonii.com%3A1337","udp%3A%2F%2Ftracker.coppersurfer.tk%3A6969","udp%3A%2F%2Fexodus.desync.com%3A6969"],"infoHash":"611c41636b2bad985fbd756c0c806049f40d1ab9","infoHashBuffer":{"type":"Buffer","data":[97,28,65,99,107,43,173,152,95,189,117,108,12,128,96,73,244,13,26,185]},"announce":[],"urlList":[]}}